<svg xmlns="http://www.w3.org/2000/svg" width="230mm" height="90mm" viewBox="0 0 230 90"><path stroke-linecap="round" fill="transparent" stroke="#0f0" d="M-25 0v247M-5 0v247M15 0v247M35 0v247M55 0v247M75 0v247M95 0v247M115 0v247M135 0v247M155 0v247M175 0v247M195 0v247M215 0v247M0-25h632M0-5h632M0 15h632M0 35h632M0 55h632M0 75h632M55 55V35m20 0H55m40 20L75 35m20 20V35m0 40V55"/><path fill="#0f0" stroke="#0f0" d="M51.596 31.596h6.809v6.809h-6.809z"/><path fill="red" stroke="#0f0" d="M76.88 35.189a3.2 3.2 0 1 0-3.76 0L71.8 40.6h6.4zM95 48.6l5.542 9.6H89.458z"/><path fill="#0f0" stroke="#0f0" d="M95 80.76L92.12 75c-2.88-5.76 8.64-5.76 5.76 0z"/><circle cx="95" cy="35" r="6.4" fill="red" stroke="#0f0"/><circle cx="95" cy="35" r="4.269" fill="red" stroke="#0f0"/><circle cx="95" cy="35" r="2.138" fill="red" stroke="#0f0"/><path fill="red" stroke="#0f0" d="M53.56 49.88l-1.44 5.76c-2.88 5.76 8.64 5.76 5.76 0l-1.44-5.76M15 8.6c-5.12 3.2-5.12 9.6 0 12.8 5.12-3.2 5.12-9.6 0-12.8z"/><circle cx="15" cy="15" r="1.6" fill="#0f0" stroke="#0f0"/><path fill="red" stroke="#0f0" d="M33.56 9.88l-1.44 5.76c-2.88 5.76 8.64 5.76 5.76 0l-1.44-5.76M50.2 10.2h9.6c-4 4.8-4 4.8 0 9.6h-9.6c4-4.8 4-4.8 0-9.6zM77.837 8.759v9.078h-9.078zM93.4 10.2c-1.6 4.48 1.28 4.48-4.8 9.6 6.4 0 6.08-5.12 6.4-3.2.32-1.92 0 3.2 6.4 3.2-6.08-5.12-3.2-5.12-4.8-9.6z"/><circle cx="135" cy="35" r="4.8" fill="red" stroke="#0f0"/><path fill="#0f0" stroke="transparent" d="M130.2 35a4.8 4.8 0 0 0 9.6 0z"/><circle cx="132.85" cy="35" r="2.15" fill="#0f0" stroke="transparent"/><circle cx="137.15" cy="35" r="2.15" fill="red" stroke="transparent"/><path fill="red" stroke="#0f0" d="M150.2 30.2h9.6v9.6h-9.6zm1.632 1.632h6.336v6.336h-6.336z"/><circle cx="175" cy="35" r="6.4" fill="red" stroke="#0f0"/><path fill="red" stroke="#0f0" d="M168.6 35h12.8"/><circle cx="175" cy="31.8" r="1.28" fill="#0f0" stroke="transparent"/><circle cx="175" cy="38.2" r="1.28" fill="#0f0" stroke="transparent"/><path fill="red" stroke="#0f0" d="M195 32.867a2.133 2.133 0 0 0 0 4.266m0 4.267a4.267 4.267 0 0 0 0-8.533M201.4 35a6.4 6.4 0 1 0-6.4 6.4M210.461 30.461h9.078v9.078h-9.078zm1.513 2.27h6.052M211.974 35h6.052m-6.052 2.27h6.052"/></svg>